# xmcd
#
# Track frame offsets: 
#        150
#        11385
#        26490
#        38560
#        48100
#        95565
#        102263
#        135022
#        156150
#        180449
#        190469
#        205737
#        219760
#        253144
#
# Disc length: 3784 seconds
#
# Revision: 0
# Processed by: cddbd v1.5.2PL0 Copyright (c) Steve Scherf et al.
# Submitted via: ExactAudioCopyFreeDBPlugin 1.0
#
DISCID=a70ec60e
DTITLE=Howe Gelb - Some Piano
DYEAR=2014
DGENRE=Alt. Rock
TTITLE0=See (Lull)
TTITLE1=What (Lull)
TTITLE2=Of (Lull)
TTITLE3=Now (Lull)
TTITLE4=Spangle Bib Of Radiant Value (Ogle)
TTITLE5=Before Tehe Tenant They Sat With Popcorn And Hunch (Ogle)
TTITLE6=Hokum Bigboy Was Probably Not His Given Name (Ogle)
TTITLE7=Tangualtion (Spun)
TTITLE8=Loss And His Hold On Us (Spun)
TTITLE9=Denmark Stunningly Soaked (Spun)
TTITLE10=Excursion Disruption (Spun)
TTITLE11=California Roll (Snarl)
TTITLE12=Calculating Route (Snarl)
TTITLE13=Ample (Snarl)
EXTD=
EXTT0=
EXTT1=
EXTT2=
EXTT3=
EXTT4=
EXTT5=
EXTT6=
EXTT7=
EXTT8=
EXTT9=
EXTT10=
EXTT11=
EXTT12=
EXTT13=
PLAYORDER=
